<?xml version="1.0" standalone="no"?>
<!DOCTYPE svg PUBLIC "-//W3C//DTD SVG 20010904//EN"
 "http://www.w3.org/TR/2001/REC-SVG-20010904/DTD/svg10.dtd">
<svg version="1.0" xmlns="http://www.w3.org/2000/svg"
 width="844.000000pt" height="1000.000000pt" viewBox="0 0 844.000000 1000.000000"
 preserveAspectRatio="xMidYMid meet">
<metadata>
Created by potrace 1.16, written by Peter Selinger 2001-2019
</metadata>
<g transform="translate(0.000000,1000.000000) scale(0.100000,-0.100000)"
fill="#000000" stroke="none">
<path d="M0 5000 l0 -5000 1408 2 1407 3 65 31 c85 40 168 118 209 193 62 116
61 99 61 1169 l0 972 473 0 c259 0 549 5 642 10 1234 73 2189 407 2920 1022
120 101 342 329 442 455 439 551 692 1186 789 1983 22 180 30 719 15 917 -72
908 -379 1623 -933 2175 -526 523 -1274 874 -2152 1009 -364 56 -186 52 -2868
56 l-2478 3 0 -5000z"/>
</g>
</svg>
