<?xml version="1.0" standalone="no"?>
<!DOCTYPE svg PUBLIC "-//W3C//DTD SVG 20010904//EN"
 "http://www.w3.org/TR/2001/REC-SVG-20010904/DTD/svg10.dtd">
<svg version="1.0" xmlns="http://www.w3.org/2000/svg"
 width="441.000000pt" height="441.000000pt" viewBox="0 0 441.000000 441.000000"
 preserveAspectRatio="xMidYMid meet">
<metadata>
Created by potrace 1.16, written by Peter Selinger 2001-2019
</metadata>
<g transform="translate(0.000000,441.000000) scale(0.100000,-0.100000)"
fill="#000000" stroke="none">
<path d="M1937 4395 c-649 -82 -1208 -428 -1574 -972 -77 -116 -199 -362 -242
-488 -77 -228 -110 -416 -118 -665 -27 -861 454 -1665 1220 -2039 326 -159
615 -225 982 -225 229 0 356 16 560 69 389 101 704 283 996 574 291 292 475
611 574 996 54 209 69 333 69 560 0 284 -40 519 -129 761 -276 746 -917 1277
-1710 1415 -148 26 -478 34 -628 14z m538 -880 c459 -102 818 -411 982 -845
43 -113 73 -266 79 -405 18 -366 -111 -710 -364 -976 -361 -380 -897 -514
-1394 -349 -450 150 -781 525 -885 1002 -25 118 -25 409 0 528 56 262 179 492
362 675 205 207 448 332 740 381 103 17 383 11 480 -11z"/>
<path d="M1970 3339 c-233 -50 -436 -163 -602 -337 -166 -173 -273 -390 -309
-626 -18 -116 -6 -343 24 -459 85 -323 314 -603 611 -747 187 -91 358 -126
565 -117 386 18 728 220 932 551 177 288 217 644 108 971 -98 294 -308 531
-593 670 -167 82 -273 107 -476 111 -138 3 -181 0 -260 -17z m375 -809 c297
-171 544 -315 548 -319 6 -6 -1058 -631 -1105 -649 -4 -2 -8 287 -8 643 0 514
3 646 13 642 6 -3 255 -145 552 -317z"/>
</g>
</svg>
